<svg width="150" height="76" viewBox="0 0 150 76" fill="none" xmlns="http://www.w3.org/2000/svg">
<path d="M0.944 10.72C0.944 10.72 0.944 10.2933 0.944 9.43999C0.944 8.58666 1.15733 7.56266 1.584 6.368C2.01067 5.17333 2.90667 4.10666 4.272 3.168C5.63733 2.144 7.68533 1.54666 10.416 1.376C13.1467 1.20533 15.28 1.41866 16.816 2.016C18.4373 2.61333 19.5893 3.38133 20.272 4.32C21.04 5.17333 21.5093 5.984 21.68 6.752C21.936 7.43466 22.064 7.77599 22.064 7.77599L27.824 51.04L32.432 16.736C32.432 16.736 32.5173 16.3093 32.688 15.456C32.8587 14.5173 33.2853 13.536 33.968 12.512C34.736 11.4027 35.8453 10.5067 37.296 9.824C38.7467 9.056 40.752 8.88533 43.312 9.312C45.872 9.65333 47.7067 10.3787 48.816 11.488C49.9253 12.512 50.608 13.6213 50.864 14.816C51.12 15.9253 51.1627 16.9067 50.992 17.76C50.8213 18.6133 50.736 19.04 50.736 19.04C50.736 19.04 50.48 20.2347 49.968 22.624C49.456 24.928 48.7733 27.9147 47.92 31.584C47.152 35.2533 46.2987 39.1787 45.36 43.36C44.4213 47.456 43.5253 51.3813 42.672 55.136C41.8187 58.8053 41.136 61.8347 40.624 64.224C40.112 66.6133 39.8133 67.8507 39.728 67.936C39.6427 68.0213 39.4293 68.4907 39.088 69.344C38.832 70.112 38.32 71.0507 37.552 72.16C36.784 73.184 35.5893 74.08 33.968 74.848C32.432 75.616 30.384 76 27.824 76C24.4107 76 21.8507 75.4453 20.144 74.336C18.4373 73.1413 17.328 71.9893 16.816 70.88C16.304 69.7707 16.048 69.216 16.048 69.216L0.944 10.72ZM60.534 69.472C60.278 66.5707 60.1073 62.944 60.022 58.592C59.9367 54.1547 59.894 49.4187 59.894 44.384C59.894 39.3493 59.9367 34.4853 60.022 29.792C60.1927 25.0133 60.3633 20.7893 60.534 17.12C60.7047 13.4507 60.8753 10.8053 61.046 9.184C61.302 7.136 62.0273 5.6 63.222 4.576C64.4167 3.46666 65.7393 2.69866 67.19 2.272C68.726 1.84533 70.006 1.632 71.03 1.632C72.1393 1.54666 72.694 1.504 72.694 1.504C72.694 1.504 73.206 1.58933 74.23 1.75999C75.3393 1.84533 76.534 2.05866 77.814 2.39999C79.094 2.74133 79.99 3.33866 80.502 4.19199C81.6113 5.89866 82.1233 7.56267 82.038 9.184C82.038 10.72 81.9527 12.7253 81.782 15.2C81.27 21.6 80.9713 27.872 80.886 34.016C80.8007 40.16 80.8007 45.7493 80.886 50.784C80.9713 55.8187 81.0567 59.8293 81.142 62.816C81.3127 65.8027 81.398 67.296 81.398 67.296C81.398 67.296 81.3553 67.7653 81.27 68.704C81.27 69.5573 81.014 70.5387 80.502 71.648C79.99 72.7573 79.0087 73.7813 77.558 74.72C76.1073 75.5733 73.974 76 71.158 76C68.342 76 66.166 75.7013 64.63 75.104C63.1793 74.4213 62.1553 73.6533 61.558 72.8C61.046 71.8613 60.7473 71.0933 60.662 70.496C60.5767 69.8133 60.534 69.472 60.534 69.472ZM109.611 15.2C108.502 15.3707 106.923 15.4987 104.875 15.584C102.827 15.584 100.736 15.456 98.603 15.2C96.4697 14.944 94.635 14.4747 93.099 13.792C91.563 13.024 90.7097 11.9147 90.539 10.464C90.4537 9.01333 90.8803 7.86133 91.819 7.008C92.843 6.15466 94.0377 5.51466 95.403 5.088C96.7683 4.576 97.963 4.27733 98.987 4.19199C100.096 4.02133 100.651 3.936 100.651 3.936L136.491 0.607994C136.491 0.607994 137.088 0.607994 138.283 0.607994C139.478 0.522662 140.843 0.565331 142.379 0.736C144 0.906665 145.451 1.33333 146.731 2.016C148.011 2.61333 148.694 3.59466 148.779 4.96C148.95 6.32533 148.523 7.47733 147.499 8.416C146.56 9.26933 145.408 9.99466 144.043 10.592C142.678 11.104 141.483 11.488 140.459 11.744C139.435 11.9147 138.923 12 138.923 12L130.731 13.28C131.072 15.4133 131.456 18.4427 131.883 22.368C132.31 26.208 132.736 30.4747 133.163 35.168C133.59 39.8613 133.974 44.4693 134.315 48.992C134.656 53.5147 134.912 57.568 135.083 61.152C135.339 64.736 135.467 67.296 135.467 68.832C135.467 70.7947 134.912 72.288 133.803 73.312C132.779 74.2507 131.542 74.9333 130.091 75.36C128.726 75.7013 127.488 75.9147 126.379 76C125.355 76 124.843 76 124.843 76C124.843 76 124.288 76 123.179 76C122.07 75.9147 120.79 75.5733 119.339 74.976C117.974 74.3787 116.736 73.2693 115.627 71.648C114.603 70.0267 114.091 67.5947 114.091 64.352C114.091 61.4507 113.92 57.9093 113.579 53.728C113.323 49.5467 112.982 45.2373 112.555 40.8C112.128 36.2773 111.659 32.096 111.147 28.256C110.72 24.416 110.336 21.3013 109.995 18.912C109.739 16.4373 109.611 15.2 109.611 15.2Z" fill="white"/>
</svg>
